<svg id="SvgjsSvg1001" width="288" height="288" xmlns="http://www.w3.org/2000/svg" version="1.1" xmlns:xlink="http://www.w3.org/1999/xlink" xmlns:svgjs="http://svgjs.com/svgjs"><defs id="SvgjsDefs1002"></defs><g id="SvgjsG1008" transform="matrix(0.9167,0,0,0.9167,11.99639318408856,11.998778899669645)"><svg xmlns="http://www.w3.org/2000/svg" xmlns:svgjs="http://svgjs.com/svgjs" xmlns:xlink="http://www.w3.org/1999/xlink" width="288" height="288"><svg xmlns="http://www.w3.org/2000/svg" width="288" height="288" version="1.0" viewBox="0 0 1280 1156"><g fill="#ffcc00" class="color000 svgShape colorfffc00" transform="matrix(.1 0 0 -.1 0 1156)"><path d="M5845 11550c-780-60-1514-347-2124-833-162-129-469-436-598-598-750-941-1017-2165-727-3334 162-649 498-1251 969-1734 424-435 886-733 1467-948 152-56 264-30 315 75l26 54-7 366c-4 202-8 368-10 369-1 2-47-4-102-12-54-8-162-18-239-21-242-11-429 21-590 100-156 78-249 173-326 336-83 174-119 240-185 340-87 132-155 205-249 265-94 61-165 134-165 169 0 59 69 82 219 74 98-6 174-33 268-94 83-54 199-175 268-279 110-165 169-231 278-306 126-88 245-122 417-122 131 0 236 20 352 65 66 25 79 34 84 56 47 219 100 336 198 442 20 21 36 42 36 45 0 3-13 5-29 5-16 0-96 11-176 25-969 164-1444 666-1525 1610-42 503 58 887 317 1208l66 81-21 65c-53 164-67 409-36 605 17 106 64 278 91 329l15 30 107-6c225-13 496-119 819-320l124-77 98 25c268 68 540 99 860 99 325 0 562-27 840-94l118-29 129 80c146 92 391 215 507 254 121 41 243 65 334 65l83 0 20-46c28-66 76-255 88-347 24-178 9-399-39-561l-22-74 53-64c242-290 353-648 335-1083-44-1068-560-1625-1636-1766-52-6-97-13-99-15-2-2 17-27 43-56 84-96 149-243 183-415 16-78 18-157 18-718 0-599 1-632 19-668 26-52 81-87 148-94 45-5 72 1 163 32 460 157 946 453 1316 802 698 658 1111 1491 1211 2443 16 156 16 586 0 740-70 654-272 1221-629 1759-251 378-612 749-981 1008-547 383-1166 615-1827 683-144 15-520 20-660 10zM1243 3449c-266-25-514-115-695-251-286-216-464-589-523-1096-34-287-29-646 11-892 118-722 499-1107 1184-1196 98-12 179-15 370-11 274 6 378 22 585 91 124 42 321 139 335 167 16 29 9 1684-7 1700-10 10-140 13-574 13-539 0-562-1-575-19-11-15-14-76-14-296 0-239 2-280 16-293 13-14 49-16 235-16l219 0 0-329 0-329-24-6c-47-12-212-26-307-26-388-1-609 177-708 570-36 143-51 287-51 491 0 296 40 513 127 689 62 125 170 237 283 292 136 67 224 83 470 83 238 0 336-11 498-56 115-33 135-35 151-16 12 16 131 506 131 543 0 34-55 67-180 108-236 77-657 114-957 85zM5672 3318c-17-17-17-3229 0-3246 9-9 97-12 334-12 280 0 325 2 338 16 14 14 16 91 16 705l0 689 475 0 475 0 0-693c0-526 3-696 12-705 16-16 640-17 669-2 19 11 19 39 19 1623 0 1241-3 1616-12 1625-17 17-659 17-676 0-9-9-12-158-12-610l0-598-475 0-475 0 0 598c0 452-3 601-12 610-17 17-659 17-676 0zM10692 3318c-9-9-12-384-12-1625 0-1584 0-1612 19-1623 12-6 108-10 244-10 256 0 250-2 262 85 12 89 8 88 90 33 130-87 294-145 473-169 124-16 347-7 447 20 338 89 513 351 571 856 13 109 15 198 11 405-6 285-17 373-71 533-125 372-398 552-811 534-172-8-318-43-458-111-37-18-69-30-72-28-3 3-5 249-5 547 0 407-3 544-12 553-17 17-659 17-676 0zm1181-1554c65-22 131-84 167-157 52-106 64-186 64-422 0-314-29-451-113-535-60-60-112-75-256-74-123 1-201 18-301 65l-64 30 0 505 0 504 50 25c136 69 344 96 453 59zM3115 3247c-116-39-199-110-246-212-111-237 35-515 293-556 116-19 258 31 338 117 183 199 123 513-120 627-51 25-80 31-145 34-48 2-96-2-120-10zM4165 2918c-3-7-6-155-7-328l-3-315-170-42c-114-28-173-47-182-59-18-25-19-423 0-447 10-14 37-17 182-19l170-3 6-560c5-532 6-564 27-642 76-289 254-439 582-489 166-25 434-4 561 44 36 14 39 38 39 276 0 262 6 251-139 242-222-14-342 43-371 176-8 37-10 193-8 503l3 450 240 3c211 2 241 4 253 19 9 12 12 84 12 273 0 189-3 261-12 273-12 15-42 17-253 19l-240 3-5 315-5 315-338 3c-265 2-339 0-342-10zM2877 2272c-16-17-17-107-17-1091l0-1072 25-24 24-25 309 0c301 0 309 1 328 21 18 20 19 55 22 1092 2 950 1 1073-13 1093l-15 24-324 0c-300 0-324-1-339-18zM8327 2272c-16-17-17-86-17-793 0-476 4-807 10-859 41-330 195-516 490-591 118-29 406-38 535-15 128 22 266 69 399 136 127 63 119 64 131-20 4-25 12-51 17-57 14-18 439-18 456-1 9 9 12 268 12 1105 0 1070 0 1093-19 1103-29 15-643 14-659-2-9-9-12-200-12-798 0-898 12-798-100-848-177-80-379-83-468-7-81 70-77 25-80 875-2 679-4 756-19 772-15 17-41 18-338 18-299 0-323-1-338-18z" class="color000 svgShape" fill="#ffcc00"></path></g></svg></svg></g></svg>